# xmcd
#
# Track frame offsets: 
#        150
#        29062
#        57353
#        70708
#        93474
#        119035
#        153947
#        187164
#        213742
#        243512
#        281726
#
# Disc length: 3885 seconds
#
# Revision: 5
# Processed by: cddbd v1.5.2PL0 Copyright (c) Steve Scherf et al.
# Submitted via: ExactAudioCopy v1.0b3
#
DISCID=ae0f2b0b
DTITLE=Various Artist - Trance Atlantic mixed by Dave Ralph
DYEAR=1999
DGENRE=Trance
TTITLE0=Delerium - Silence
TTITLE1=Tilt - What's This
TTITLE2=Stonemaker - Flashback
TTITLE3=Dovebeat - La Paloma
TTITLE4=Planet Heaven - Nautical Bodies
TTITLE5=Bumbling Loons - Rumbling Toons (Evolution Mix)
TTITLE6=16C+ - Under 4 Ever
TTITLE7=Olmec Heads - Spiritualized
TTITLE8=DJ Tandu - Velvet
TTITLE9=Argonauts - Fruehlingstag
TTITLE10=Track 11 - Track 11
EXTD=
EXTT0=
EXTT1=
EXTT2=
EXTT3=
EXTT4=
EXTT5=
EXTT6=
EXTT7=
EXTT8=
EXTT9=
EXTT10=
PLAYORDER=
